# xmcd
#
# Track frame offsets:
#	150
#	11402
#	22350
#	32417
#	42927
#	54817
#	66030
#	76315
#	88560
#	98935
#	108652
#	118082
#	130467
#	140727
#	151680
#	163757
#	174082
#	184235
#	193835
#	205965
#
# Disc length: 2871 seconds
# Revision: 3
# Processed by: cddbd v1.5.2PL0 Copyright (c) Steve Scherf et al.
# Submitted via: dBpowerAMP V12.0
#
DISCID=0f0b3514
DTITLE=Twitty, Conway - The Best of Conway Twitty
DYEAR=1998
DGENRE=Country
TTITLE0=Heavenly
TTITLE1=Mona Lisa
TTITLE2=Its Only Make Believe
TTITLE3=Halfway to Heaven
TTITLE4=What Am I Living for
TTITLE5=Big Town
TTITLE6=I'll Try
TTITLE7=Sittin in a Dim Cafe
TTITLE8=Born to Sing the Blues
TTITLE9=Double Talk Baby
TTITLE10=Don't Go Too Far
TTITLE11=Danny Boy
TTITLE12=Lonely Blue Boy
TTITLE13=The Hurt in My Heart
TTITLE14=Golly Gosh Oh Gee
TTITLE15=Midnight
TTITLE16=Where I Stand
TTITLE17=I Wonder If You Told Her About Me
TTITLE18=You Made Me What I Am
TTITLE19=This Road That I Walk
EXTD=
EXTT0=
EXTT1=
EXTT2=
EXTT3=
EXTT4=
EXTT5=
EXTT6=
EXTT7=
EXTT8=
EXTT9=
EXTT10=
EXTT11=
EXTT12=
EXTT13=
EXTT14=
EXTT15=
EXTT16=
EXTT17=
EXTT18=
EXTT19=
PLAYORDER=
